<?xml version="1.0" encoding="UTF-8"?>
<svg viewBox="0 0 110 54" xmlns="http://www.w3.org/2000/svg">
  <defs>
    <style id="current-color-scheme" type="text/css">
      .ColorScheme-Text { color: #00F0FF; }
      .ColorScheme-Highlight { color: #38BDF8; }
      .ColorScheme-NeutralText { color: #FBBF24; }
      .ColorScheme-NegativeText { color: #FF2E63; }
    </style>
    <linearGradient id="speakerGrad" x1="0%" y1="0%" x2="100%" y2="100%">
      <stop offset="0%" stop-color="#00F0FF"/>
      <stop offset="100%" stop-color="#38BDF8"/>
    </linearGradient>
  </defs>

  <!-- 22x22 audio-volume-high (x=0..22) -->
  <g id="audio-volume-high">
    <rect x="0" y="0" width="22" height="22" fill="none"/>
    <g class="ColorScheme-Text" fill="currentColor">
      <path d="M 3 8 L 6 8 L 10 4 L 10 18 L 6 14 L 3 14 Z" fill="url(#speakerGrad)" stroke="#00F0FF" stroke-width="0.8" stroke-linejoin="round"/>
      <path d="M 12.5 8.5 C 13.8 9.8 13.8 12.2 12.5 13.5" fill="none" stroke="#00F0FF" stroke-width="1.6" stroke-linecap="round"/>
      <path d="M 15 6.5 C 17.5 9 17.5 13 15 15.5" fill="none" stroke="#00F0FF" stroke-width="1.6" stroke-linecap="round"/>
      <path d="M 17.5 4.5 C 21 8 21 14 17.5 17.5" fill="none" stroke="#00F0FF" stroke-width="1.6" stroke-linecap="round"/>
    </g>
  </g>

  <!-- 22x22 audio-volume-medium (x=22..44) -->
  <g id="audio-volume-medium">
    <rect x="22" y="0" width="22" height="22" fill="none"/>
    <g class="ColorScheme-Text" fill="currentColor">
      <path d="M 25 8 L 28 8 L 32 4 L 32 18 L 28 14 L 25 14 Z" fill="url(#speakerGrad)" stroke="#00F0FF" stroke-width="0.8" stroke-linejoin="round"/>
      <path d="M 34.5 8.5 C 35.8 9.8 35.8 12.2 34.5 13.5" fill="none" stroke="#00F0FF" stroke-width="1.6" stroke-linecap="round"/>
      <path d="M 37 6.5 C 39.5 9 39.5 13 37 15.5" fill="none" stroke="#00F0FF" stroke-width="1.6" stroke-linecap="round"/>
      <path d="M 39.5 4.5 C 43 8 43 14 39.5 17.5" fill="none" stroke="#64748B" stroke-width="1.2" stroke-linecap="round" opacity="0.25"/>
    </g>
  </g>

  <!-- 22x22 audio-volume-low (x=44..66) -->
  <g id="audio-volume-low">
    <rect x="44" y="0" width="22" height="22" fill="none"/>
    <g class="ColorScheme-Text" fill="currentColor">
      <path d="M 47 8 L 50 8 L 54 4 L 54 18 L 50 14 L 47 14 Z" fill="url(#speakerGrad)" stroke="#00F0FF" stroke-width="0.8" stroke-linejoin="round"/>
      <path d="M 56.5 8.5 C 57.8 9.8 57.8 12.2 56.5 13.5" fill="none" stroke="#00F0FF" stroke-width="1.6" stroke-linecap="round"/>
      <path d="M 59 6.5 C 61.5 9 61.5 13 59 15.5" fill="none" stroke="#64748B" stroke-width="1.2" stroke-linecap="round" opacity="0.25"/>
      <path d="M 61.5 4.5 C 65 8 65 14 61.5 17.5" fill="none" stroke="#64748B" stroke-width="1.2" stroke-linecap="round" opacity="0.25"/>
    </g>
  </g>

  <!-- 22x22 audio-volume-muted (x=66..88) -->
  <g id="audio-volume-muted">
    <rect x="66" y="0" width="22" height="22" fill="none"/>
    <g fill="currentColor">
      <path d="M 69 8 L 72 8 L 76 4 L 76 18 L 72 14 L 69 14 Z" fill="#64748B" opacity="0.5" stroke="#64748B" stroke-width="0.8" stroke-linejoin="round"/>
      <line x1="68" y1="4" x2="86" y2="18" stroke="#FF2E63" stroke-width="2.2" stroke-linecap="round"/>
      <line x1="68" y1="4" x2="86" y2="18" stroke="#FFFFFF" stroke-width="0.8" stroke-linecap="round" opacity="0.8"/>
    </g>
  </g>

  <!-- 16x16 icons -->
  <g id="16-16-audio-volume-high">
    <rect x="0" y="24" width="16" height="16" fill="none"/>
    <g class="ColorScheme-Text" fill="currentColor">
      <path d="M 2 30 L 4 30 L 7 27 L 7 37 L 4 34 L 2 34 Z" fill="url(#speakerGrad)" stroke="#00F0FF" stroke-width="0.6"/>
      <path d="M 9 29.5 C 10.2 30.7 10.2 33.3 9 34.5" fill="none" stroke="#00F0FF" stroke-width="1.4" stroke-linecap="round"/>
      <path d="M 11.5 27.5 C 13.8 29.8 13.8 34.2 11.5 36.5" fill="none" stroke="#00F0FF" stroke-width="1.4" stroke-linecap="round"/>
    </g>
  </g>

  <g id="16-16-audio-volume-medium">
    <rect x="16" y="24" width="16" height="16" fill="none"/>
    <g class="ColorScheme-Text" fill="currentColor">
      <path d="M 18 30 L 20 30 L 23 27 L 23 37 L 20 34 L 18 34 Z" fill="url(#speakerGrad)" stroke="#00F0FF" stroke-width="0.6"/>
      <path d="M 25 29.5 C 26.2 30.7 26.2 33.3 25 34.5" fill="none" stroke="#00F0FF" stroke-width="1.4" stroke-linecap="round"/>
    </g>
  </g>

  <g id="16-16-audio-volume-low">
    <rect x="32" y="24" width="16" height="16" fill="none"/>
    <g class="ColorScheme-Text" fill="currentColor">
      <path d="M 34 30 L 36 30 L 39 27 L 39 37 L 36 34 L 34 34 Z" fill="url(#speakerGrad)" stroke="#00F0FF" stroke-width="0.6"/>
      <path d="M 41 29.5 C 42.2 30.7 42.2 33.3 41 34.5" fill="none" stroke="#00F0FF" stroke-width="1.4" stroke-linecap="round"/>
    </g>
  </g>

  <g id="16-16-audio-volume-muted">
    <rect x="48" y="24" width="16" height="16" fill="none"/>
    <g fill="currentColor">
      <path d="M 50 30 L 52 30 L 55 27 L 55 37 L 52 34 L 50 34 Z" fill="#64748B" opacity="0.5"/>
      <line x1="49" y1="26" x2="63" y2="38" stroke="#FF2E63" stroke-width="1.8" stroke-linecap="round"/>
    </g>
  </g>
</svg>
